<svg width="24" height="24" fill="none" xmlns="http://www.w3.org/2000/svg"><path d="M19.618 23.988h-3.393V14.63h3.505v-.012l.16-3.378.001-.013h-3.667V8.773c0-.466.05-.835.248-1.088.197-.252.546-.392 1.153-.392a251.441 251.441 0 011.977.008l.133.001h.058V7.29l.08-3.154v-.011l-.01-.002-.002.013.001-.013h0-.003l-.008-.001-.035-.005-.133-.014a22.316 22.316 0 00-2.2-.11c-1.692-.001-2.906.52-3.697 1.327-.791.806-1.159 1.897-1.159 3.034v2.873h-2.481v3.403h2.481v9.357H4.382a4.36 4.36 0 01-4.37-4.37V4.383A4.36 4.36 0 014.369.012h15.25a4.36 4.36 0 014.37 4.37v15.236a4.36 4.36 0 01-4.37 4.37z" fill="#FDF1FF" stroke="#FDF1FF" stroke-width=".025"/></svg>