<svg width="24" height="24" fill="none" xmlns="http://www.w3.org/2000/svg"><path d="M23.905 7.047h0c.082 1.452.08 2.895.078 4.347v1.284c.003 1.428.005 2.847-.078 4.274h0c-.093 1.92-.528 3.618-1.932 5.022-1.4 1.4-3.101 1.838-5.02 1.931h0c-1.453.082-2.895.08-4.347.079a611.254 611.254 0 00-1.211 0c-1.45.001-2.893.003-4.348-.079h0c-1.919-.093-3.617-.527-5.02-1.931C.624 20.573.186 18.872.094 16.953h0C.013 15.5.015 14.056.016 12.605a546.208 546.208 0 000-1.21C.014 9.945.013 8.502.095 7.048h0c.093-1.92.527-3.618 1.931-5.022C3.427.626 5.128.188 7.047.095h0C8.5.013 9.942.015 11.394.016a547.654 547.654 0 001.21 0c1.45-.002 2.894-.003 4.348.079h0c1.92.093 3.617.527 5.021 1.931 1.401 1.401 1.839 3.102 1.932 5.021zM8.011 12a3.995 3.995 0 013.986-3.986A3.995 3.995 0 0115.983 12a3.995 3.995 0 01-3.986 3.986A3.995 3.995 0 018.01 12zm-2.187 0a6.164 6.164 0 006.173 6.173A6.164 6.164 0 0018.169 12a6.164 6.164 0 00-6.172-6.173A6.164 6.164 0 005.824 12zm11.128-6.41a1.452 1.452 0 002.482 1.029 1.451 1.451 0 00.426-1.028c0-.804-.65-1.454-1.454-1.454-.804 0-1.454.65-1.454 1.454z" fill="#FDF1FF" stroke="#FDF1FF" stroke-width=".031"/></svg>