<svg width="142" height="39" fill="none" xmlns="http://www.w3.org/2000/svg"><path d="M17.66 20.935V30h-4.72v-9.19c0-1.333-.208-2.313-.624-2.938-.396-.625-1.053-.938-1.97-.938-.896 0-1.698.344-2.407 1.032-.687.667-1.031 1.656-1.031 2.97V30H2.219V13.183h4.689v1.907c1.292-1.459 2.772-2.188 4.439-2.188 1.062 0 2.02.313 2.875.938.876.625 1.532 1.385 1.97 2.282a6.629 6.629 0 012.594-2.376c1.104-.563 2.209-.844 3.313-.844 1.98 0 3.574.594 4.783 1.782 1.208 1.167 1.813 2.865 1.813 5.095V30h-4.72v-9.19c0-2.584-.948-3.876-2.845-3.876-.937 0-1.75.344-2.438 1.032-.688.667-1.031 1.656-1.031 2.97zM47.244 30h-4.407v-2.032c-1.209 1.521-2.71 2.282-4.501 2.282-1.772 0-3.262-.51-4.47-1.532-1.209-1.041-1.813-2.417-1.813-4.126 0-1.73.625-3.021 1.875-3.876 1.25-.854 2.96-1.281 5.127-1.281h3.5v-.094c0-1.792-.948-2.688-2.844-2.688-.813 0-1.678.167-2.595.5-.896.313-1.656.709-2.281 1.188l-2.095-3.032c2.21-1.605 4.73-2.407 7.565-2.407 2.042 0 3.71.51 5.001 1.532 1.292 1.02 1.938 2.636 1.938 4.845V30zm-4.72-6.408v-.813h-2.938c-1.876 0-2.813.584-2.813 1.75 0 .605.218 1.074.656 1.407.459.313 1.105.47 1.938.47.834 0 1.563-.25 2.188-.75.646-.522.97-1.21.97-2.064zm13.683-2.97V30h-4.688V13.183h4.688v1.876c1.417-1.438 3.011-2.157 4.783-2.157 1.771 0 3.25.625 4.438 1.875 1.209 1.25 1.813 2.918 1.813 5.002V30h-4.688v-9.502c0-2.584-.949-3.876-2.845-3.876-.938 0-1.76.343-2.47 1.031-.687.667-1.03 1.657-1.03 2.97zM85.766 30h-4.407v-2.032c-1.209 1.521-2.71 2.282-4.501 2.282-1.772 0-3.262-.51-4.47-1.532-1.209-1.041-1.813-2.417-1.813-4.126 0-1.73.625-3.021 1.875-3.876 1.25-.854 2.96-1.281 5.126-1.281h3.501v-.094c0-1.792-.948-2.688-2.844-2.688-.813 0-1.678.167-2.595.5-.896.313-1.656.709-2.281 1.188l-2.095-3.032c2.21-1.605 4.73-2.407 7.565-2.407 2.042 0 3.709.51 5.001 1.532 1.292 1.02 1.938 2.636 1.938 4.845V30zm-4.72-6.408v-.813h-2.938c-1.876 0-2.813.584-2.813 1.75 0 .605.218 1.074.656 1.407.458.313 1.104.47 1.938.47.834 0 1.563-.25 2.188-.75.646-.522.969-1.21.969-2.064zm20.779-2.344c0-1.355-.375-2.418-1.126-3.189-.75-.77-1.677-1.156-2.782-1.156-1.104 0-2.063.386-2.875 1.157-.792.77-1.188 1.823-1.188 3.157 0 1.333.385 2.417 1.156 3.25.792.813 1.75 1.22 2.876 1.22s2.063-.407 2.813-1.22c.751-.812 1.126-1.886 1.126-3.22zm.656 5.907c-1.479 1.647-3.324 2.47-5.532 2.47-2.189 0-4.043-.74-5.564-2.22-1.5-1.5-2.251-3.49-2.251-5.97 0-2.5.771-4.543 2.313-6.126 1.563-1.605 3.345-2.407 5.345-2.407 2 0 3.657.823 4.97 2.47v-2.22h4.689v14.66c0 1.5-.261 2.834-.782 4.001-.521 1.167-1.219 2.084-2.094 2.75-1.729 1.376-3.772 2.064-6.126 2.064-1.25 0-2.532-.209-3.845-.626-1.292-.395-2.428-.968-3.407-1.719l1.813-3.532c1.542 1.167 3.167 1.75 4.876 1.75 1.73 0 3.095-.427 4.095-1.28 1-.855 1.5-2.21 1.5-4.064zm22.974.407c-1.896 1.792-4.126 2.688-6.689 2.688-2.542 0-4.647-.781-6.314-2.344-1.667-1.584-2.501-3.7-2.501-6.346s.844-4.75 2.532-6.314c1.709-1.563 3.72-2.344 6.033-2.344s4.272.698 5.877 2.094c1.625 1.396 2.438 3.314 2.438 5.752v2.5h-12.253c.146.917.625 1.667 1.438 2.25a4.599 4.599 0 002.75.876c1.646 0 3.001-.552 4.064-1.657l2.625 2.845zm-3.375-7.658c-.105-1-.48-1.772-1.126-2.313-.646-.542-1.438-.813-2.375-.813-.917 0-1.761.281-2.532.844-.771.563-1.219 1.323-1.344 2.282h7.377z" fill="#fff"/><circle r="5.358" transform="matrix(-1 0 0 1 136.642 22.327)" fill="#FDF1FF"/></svg>