<svg width="159" height="43" fill="none" xmlns="http://www.w3.org/2000/svg"><path d="M19.775 23.85V34H14.49V23.71c0-1.493-.233-2.59-.7-3.29-.443-.7-1.178-1.05-2.205-1.05-1.003 0-1.902.385-2.695 1.155-.77.747-1.155 1.855-1.155 3.325V34h-5.25V15.17h5.25v2.135c1.447-1.633 3.103-2.45 4.97-2.45 1.19 0 2.263.35 3.22 1.05.98.7 1.715 1.552 2.205 2.555a7.422 7.422 0 012.905-2.66c1.237-.63 2.473-.945 3.71-.945 2.217 0 4.002.665 5.355 1.995 1.353 1.307 2.03 3.208 2.03 5.705V34h-5.285V23.71c0-2.893-1.062-4.34-3.185-4.34-1.05 0-1.96.385-2.73 1.155-.77.747-1.155 1.855-1.155 3.325zM52.899 34h-4.935v-2.275c-1.353 1.703-3.033 2.555-5.04 2.555-1.983 0-3.652-.572-5.005-1.715-1.353-1.167-2.03-2.707-2.03-4.62 0-1.937.7-3.383 2.1-4.34 1.4-.957 3.313-1.435 5.74-1.435h3.92v-.105c0-2.007-1.062-3.01-3.185-3.01-.91 0-1.878.187-2.905.56-1.003.35-1.855.793-2.555 1.33l-2.345-3.395c2.473-1.797 5.297-2.695 8.47-2.695 2.287 0 4.153.572 5.6 1.715 1.447 1.143 2.17 2.952 2.17 5.425V34zm-5.285-7.175v-.91h-3.29c-2.1 0-3.15.653-3.15 1.96 0 .677.245 1.202.735 1.575.513.35 1.237.525 2.17.525.933 0 1.75-.28 2.45-.84.723-.583 1.085-1.353 1.085-2.31zM62.935 23.5V34h-5.25V15.17h5.25v2.1c1.587-1.61 3.372-2.415 5.355-2.415 1.983 0 3.64.7 4.97 2.1 1.353 1.4 2.03 3.267 2.03 5.6V34h-5.25V23.36c0-2.893-1.062-4.34-3.185-4.34-1.05 0-1.972.385-2.765 1.155-.77.747-1.155 1.855-1.155 3.325zM96.034 34h-4.935v-2.275c-1.354 1.703-3.034 2.555-5.04 2.555-1.984 0-3.652-.572-5.005-1.715-1.354-1.167-2.03-2.707-2.03-4.62 0-1.937.7-3.383 2.1-4.34 1.4-.957 3.313-1.435 5.74-1.435h3.92v-.105c0-2.007-1.062-3.01-3.185-3.01-.91 0-1.879.187-2.905.56-1.004.35-1.855.793-2.555 1.33l-2.345-3.395c2.473-1.797 5.296-2.695 8.47-2.695 2.286 0 4.153.572 5.6 1.715 1.446 1.143 2.17 2.952 2.17 5.425V34zm-5.285-7.175v-.91h-3.29c-2.1 0-3.15.653-3.15 1.96 0 .677.245 1.202.735 1.575.513.35 1.236.525 2.17.525.933 0 1.75-.28 2.45-.84.723-.583 1.085-1.353 1.085-2.31zm23.266-2.625c0-1.517-.42-2.707-1.26-3.57-.84-.863-1.878-1.295-3.115-1.295-1.237 0-2.31.432-3.22 1.295-.887.863-1.33 2.042-1.33 3.535 0 1.493.432 2.707 1.295 3.64.887.91 1.96 1.365 3.22 1.365 1.26 0 2.31-.455 3.15-1.365.84-.91 1.26-2.112 1.26-3.605zm.735 6.615c-1.657 1.843-3.722 2.765-6.195 2.765-2.45 0-4.527-.828-6.23-2.485-1.68-1.68-2.52-3.908-2.52-6.685 0-2.8.863-5.087 2.59-6.86 1.75-1.797 3.745-2.695 5.985-2.695s4.095.922 5.565 2.765v-2.485h5.25V31.55c0 1.68-.292 3.173-.875 4.48-.583 1.307-1.365 2.333-2.345 3.08-1.937 1.54-4.223 2.31-6.86 2.31-1.4 0-2.835-.233-4.305-.7-1.447-.443-2.718-1.085-3.815-1.925l2.03-3.955c1.727 1.307 3.547 1.96 5.46 1.96 1.937 0 3.465-.478 4.585-1.435 1.12-.957 1.68-2.473 1.68-4.55zm25.725.455c-2.124 2.007-4.62 3.01-7.49 3.01-2.847 0-5.204-.875-7.07-2.625-1.867-1.773-2.8-4.142-2.8-7.105s.945-5.32 2.835-7.07c1.913-1.75 4.165-2.625 6.755-2.625s4.783.782 6.58 2.345c1.82 1.563 2.73 3.71 2.73 6.44v2.8h-13.72c.163 1.027.7 1.867 1.61 2.52.91.653 1.936.98 3.08.98 1.843 0 3.36-.618 4.55-1.855l2.94 3.185zm-3.78-8.575c-.117-1.12-.537-1.983-1.26-2.59-.724-.607-1.61-.91-2.66-.91-1.027 0-1.972.315-2.835.945-.864.63-1.365 1.482-1.505 2.555h8.26z" fill="#fff"/><circle r="6" transform="matrix(-1 0 0 1 153 25)" fill="#FDF1FF"/></svg>