<svg width="142" height="39" viewBox="0 0 142 39" fill="none" xmlns="http://www.w3.org/2000/svg">
<path d="M17.6607 20.9352V30H12.9408V20.8102C12.9408 19.4765 12.7324 18.4971 12.3156 17.8719C11.9197 17.2468 11.2633 16.9342 10.3464 16.9342C9.45029 16.9342 8.64801 17.278 7.9395 17.9657C7.25182 18.6326 6.90799 19.6224 6.90799 20.9352V30H2.21931V13.1833H6.90799V15.09C8.19998 13.6313 9.67952 12.9019 11.3466 12.9019C12.4094 12.9019 13.3679 13.2145 14.2223 13.8397C15.0975 14.4648 15.754 15.2254 16.1916 16.1215C16.8376 15.1004 17.7024 14.3086 18.786 13.7459C19.8904 13.1833 20.9949 12.9019 22.0993 12.9019C24.079 12.9019 25.6731 13.4958 26.8818 14.6836C28.0904 15.8506 28.6947 17.549 28.6947 19.7787V30H23.9748V20.8102C23.9748 18.2262 23.0266 16.9342 21.1303 16.9342C20.1926 16.9342 19.3799 17.278 18.6922 17.9657C18.0045 18.6326 17.6607 19.6224 17.6607 20.9352ZM47.2431 30H42.8357V27.9682C41.6271 29.4895 40.1267 30.2501 38.3346 30.2501C36.5633 30.2501 35.0734 29.7395 33.8647 28.7184C32.6561 27.6765 32.0518 26.3012 32.0518 24.5924C32.0518 22.8628 32.6769 21.5708 33.9272 20.7164C35.1776 19.862 36.8863 19.4348 39.0535 19.4348H42.5544V19.3411C42.5544 17.549 41.6063 16.6529 39.7099 16.6529C38.8972 16.6529 38.0324 16.8196 37.1155 17.153C36.2195 17.4656 35.4589 17.8615 34.8337 18.3408L32.7394 15.3088C34.9483 13.7042 37.4698 12.9019 40.3038 12.9019C42.346 12.9019 44.0131 13.4125 45.3051 14.4336C46.5971 15.4547 47.2431 17.0697 47.2431 19.2786V30ZM42.5231 23.5921V22.7794H39.5849C37.7094 22.7794 36.7717 23.3629 36.7717 24.5299C36.7717 25.1342 36.9905 25.6031 37.4281 25.9365C37.8866 26.2491 38.5326 26.4053 39.3661 26.4053C40.1996 26.4053 40.929 26.1553 41.5542 25.6552C42.2001 25.1342 42.5231 24.4465 42.5231 23.5921ZM56.2063 20.6226V30H51.5176V13.1833H56.2063V15.0587C57.6233 13.6209 59.2174 12.9019 60.9887 12.9019C62.76 12.9019 64.2395 13.5271 65.4273 14.7774C66.636 16.0277 67.2403 17.6948 67.2403 19.7787V30H62.5516V20.4976C62.5516 17.9136 61.6035 16.6216 59.7072 16.6216C58.7694 16.6216 57.9463 16.9655 57.2378 17.6531C56.5501 18.32 56.2063 19.3098 56.2063 20.6226ZM85.766 30H81.3586V27.9682C80.15 29.4895 78.6496 30.2501 76.8575 30.2501C75.0862 30.2501 73.5962 29.7395 72.3876 28.7184C71.179 27.6765 70.5746 26.3012 70.5746 24.5924C70.5746 22.8628 71.1998 21.5708 72.4501 20.7164C73.7004 19.862 75.4092 19.4348 77.5764 19.4348H81.0773V19.3411C81.0773 17.549 80.1291 16.6529 78.2328 16.6529C77.4201 16.6529 76.5553 16.8196 75.6384 17.153C74.7424 17.4656 73.9817 17.8615 73.3566 18.3408L71.2623 15.3088C73.4712 13.7042 75.9927 12.9019 78.8267 12.9019C80.8689 12.9019 82.536 13.4125 83.828 14.4336C85.12 15.4547 85.766 17.0697 85.766 19.2786V30ZM81.046 23.5921V22.7794H78.1078C76.2323 22.7794 75.2946 23.3629 75.2946 24.5299C75.2946 25.1342 75.5134 25.6031 75.951 25.9365C76.4094 26.2491 77.0554 26.4053 77.889 26.4053C78.7225 26.4053 79.4519 26.1553 80.077 25.6552C80.723 25.1342 81.046 24.4465 81.046 23.5921ZM101.825 21.2478C101.825 19.8933 101.45 18.8305 100.699 18.0595C99.9492 17.2885 99.0219 16.903 97.9174 16.903C96.813 16.903 95.8544 17.2885 95.0417 18.0595C94.2499 18.8305 93.8539 19.8829 93.8539 21.2165C93.8539 22.5502 94.2394 23.6338 95.0105 24.4674C95.8023 25.2801 96.7609 25.6864 97.8862 25.6864C99.0115 25.6864 99.9492 25.2801 100.699 24.4674C101.45 23.6547 101.825 22.5815 101.825 21.2478ZM102.481 27.1555C101.002 28.8018 99.1573 29.6249 96.9485 29.6249C94.7604 29.6249 92.9058 28.8851 91.3846 27.4056C89.8842 25.9052 89.134 23.9151 89.134 21.4353C89.134 18.9347 89.905 16.8925 91.4471 15.3088C93.01 13.7042 94.7917 12.9019 96.7922 12.9019C98.7927 12.9019 100.449 13.7251 101.762 15.3713V13.152H106.451V27.8119C106.451 29.3123 106.19 30.646 105.669 31.813C105.148 32.9799 104.45 33.8968 103.575 34.5636C101.846 35.939 99.8033 36.6267 97.4486 36.6267C96.1983 36.6267 94.9167 36.4183 93.6039 36.0015C92.3119 35.6056 91.1762 35.0325 90.1968 34.2823L92.0097 30.7502C93.5518 31.9171 95.1772 32.5006 96.8859 32.5006C98.6155 32.5006 99.9805 32.0734 100.981 31.2191C101.981 30.3647 102.481 29.0102 102.481 27.1555ZM125.455 27.5619C123.559 29.354 121.329 30.2501 118.766 30.2501C116.224 30.2501 114.119 29.4686 112.452 27.9057C110.785 26.322 109.951 24.2069 109.951 21.5604C109.951 18.9139 110.795 16.8092 112.483 15.2463C114.192 13.6834 116.203 12.9019 118.516 12.9019C120.829 12.9019 122.788 13.6 124.393 14.9962C126.018 16.3924 126.831 18.3096 126.831 20.7477V23.2483H114.578C114.724 24.1652 115.203 24.9154 116.016 25.4989C116.828 26.0823 117.745 26.3741 118.766 26.3741C120.412 26.3741 121.767 25.8219 122.83 24.7174L125.455 27.5619ZM122.08 19.9037C121.975 18.9035 121.6 18.1324 120.954 17.5906C120.308 17.0488 119.516 16.7779 118.579 16.7779C117.662 16.7779 116.818 17.0592 116.047 17.6219C115.276 18.1845 114.828 18.9451 114.703 19.9037H122.08Z" fill="white"/>
<circle r="5.35849" transform="matrix(-1 0 0 1 136.642 22.3271)" fill="#FDF1FF"/>
</svg>
