<?xml version="1.0" encoding="utf-8"?><svg viewBox="0 0 37 36" xmlns="http://www.w3.org/2000/svg" xmlns:xlink="http://www.w3.org/1999/xlink"><style>:root>svg{display:none}:root>svg:target{display:block}</style><svg viewBox="0 0 14 11" id="arrow-down" xmlns="http://www.w3.org/2000/svg"><path d="M7 11L.072.5h13.856L7 11z"/></svg><svg viewBox="0 0 10 12" id="calendar" xmlns="http://www.w3.org/2000/svg"><path d="M.268 4.5h9.464c.147 0 .268.127.268.281v6.094C10 11.496 9.52 12 8.929 12H1.07C.48 12 0 11.496 0 10.875V4.781C0 4.627.12 4.5.268 4.5zM10 3.469v-.844C10 2.004 9.52 1.5 8.929 1.5H7.857V.281A.276.276 0 007.59 0h-.893a.276.276 0 00-.267.281V1.5H3.57V.281A.276.276 0 003.304 0H2.41a.276.276 0 00-.268.281V1.5H1.07C.48 1.5 0 2.004 0 2.625v.844c0 .154.12.281.268.281h9.464A.276.276 0 0010 3.469z"/></svg><svg viewBox="0 0 24 24" id="facebook" xmlns="http://www.w3.org/2000/svg"><path d="M19.618 23.988h-3.393V14.63h3.505v-.012l.16-3.378.001-.013h-3.667V8.773c0-.466.05-.835.248-1.088.197-.252.546-.392 1.153-.392a251.441 251.441 0 011.977.008l.133.001H19.793V7.29l.08-3.154v-.011l-.01-.002-.002.013.001-.013h-.003l-.008-.001-.035-.005-.133-.014a22.316 22.316 0 00-2.2-.11c-1.692-.001-2.906.52-3.697 1.327-.791.806-1.159 1.897-1.159 3.034v2.873h-2.481v3.403h2.481v9.357H4.382a4.36 4.36 0 01-4.37-4.37V4.383A4.36 4.36 0 014.369.012h15.25a4.36 4.36 0 014.37 4.37v15.236a4.36 4.36 0 01-4.37 4.37z"/></svg><svg viewBox="0 0 24 24" id="instagram" xmlns="http://www.w3.org/2000/svg"><path d="M23.905 7.047c.082 1.452.08 2.895.078 4.347v1.284c.003 1.428.005 2.847-.078 4.274-.093 1.92-.528 3.618-1.932 5.022-1.4 1.4-3.101 1.838-5.02 1.931-1.453.082-2.895.08-4.347.079a611.254 611.254 0 00-1.211 0c-1.45.001-2.893.003-4.348-.079-1.919-.093-3.617-.527-5.02-1.931C.624 20.573.186 18.872.094 16.953.013 15.5.015 14.056.016 12.605a546.208 546.208 0 000-1.21C.014 9.945.013 8.502.095 7.048c.093-1.92.527-3.618 1.931-5.022C3.427.626 5.128.188 7.047.095 8.5.013 9.942.015 11.394.016a547.654 547.654 0 001.21 0c1.45-.002 2.894-.003 4.348.079 1.92.093 3.617.527 5.021 1.931 1.401 1.401 1.839 3.102 1.932 5.021zM8.011 12a3.995 3.995 0 013.986-3.986A3.995 3.995 0 0115.983 12a3.995 3.995 0 01-3.986 3.986A3.995 3.995 0 018.01 12zm-2.187 0a6.164 6.164 0 006.173 6.173A6.164 6.164 0 0018.169 12a6.164 6.164 0 00-6.172-6.173A6.164 6.164 0 005.824 12zm11.128-6.41a1.452 1.452 0 002.482 1.029 1.451 1.451 0 00.426-1.028c0-.804-.65-1.454-1.454-1.454-.804 0-1.454.65-1.454 1.454z"/></svg><svg viewBox="0 0 12 12" id="plans" xmlns="http://www.w3.org/2000/svg"><path d="M11.813.188a.643.643 0 00-.684-.146L.415 4.098H.412a.643.643 0 00.027 1.21l.01.003 3.679 1.57a.429.429 0 00.416-.096l5.903-5.5a.19.19 0 01.308.062.19.19 0 01-.04.206l-5.5 5.9a.429.429 0 00-.097.416l1.57 3.68.006.016a.63.63 0 00.565.435h.027a.66.66 0 00.616-.414L11.957.873a.643.643 0 00-.144-.685z"/></svg><svg viewBox="0 0 37 36" id="plus" xmlns="http://www.w3.org/2000/svg"><path d="M.431 18H36.57M18.5 0v36"/></svg><svg viewBox="0 0 12 12" id="share" xmlns="http://www.w3.org/2000/svg"><path d="M9.677 7.5C10.963 7.5 12 8.505 12 9.75S10.963 12 9.677 12c-1.285 0-2.322-1.005-2.322-2.25 0-.18.023-.345.07-.518L4.034 7.508a2.32 2.32 0 01-1.711.742C1.037 8.25 0 7.245 0 6s1.037-2.25 2.323-2.25a2.35 2.35 0 011.71.742l3.392-1.724a1.94 1.94 0 01-.07-.518C7.355 1.005 8.392 0 9.677 0 10.963 0 12 1.005 12 2.25S10.963 4.5 9.677 4.5a2.35 2.35 0 01-1.71-.743L4.574 5.482a1.94 1.94 0 010 1.035l3.391 1.725A2.32 2.32 0 019.677 7.5z"/></svg><svg viewBox="0 0 12 12" id="to-do" xmlns="http://www.w3.org/2000/svg"><path d="M6 0C2.692 0 0 2.691 0 6s2.692 6 6 6 6-2.691 6-6-2.692-6-6-6zm3.345 3.999L5.653 8.153a.46.46 0 01-.634.054L2.712 6.36a.462.462 0 01.576-.72l1.966 1.572 3.401-3.827a.461.461 0 11.69.614z"/></svg><svg viewBox="0 0 24 24" id="twiter" xmlns="http://www.w3.org/2000/svg"><path d="M21.429 0H2.57A2.572 2.572 0 000 2.571V21.43A2.572 2.572 0 002.571 24H21.43A2.572 2.572 0 0024 21.429V2.57A2.572 2.572 0 0021.429 0zm-2.62 8.507c.01.15.01.306.01.456 0 4.644-3.535 9.996-9.996 9.996a9.95 9.95 0 01-5.394-1.575c.284.032.557.043.846.043a7.045 7.045 0 004.36-1.5 3.518 3.518 0 01-3.283-2.438c.54.08 1.028.08 1.585-.064a3.514 3.514 0 01-2.812-3.45v-.043a3.511 3.511 0 001.586.445 3.507 3.507 0 01-1.565-2.925c0-.654.172-1.254.477-1.773a9.976 9.976 0 007.243 3.675c-.498-2.384 1.286-4.318 3.429-4.318a3.5 3.5 0 012.566 1.109 6.885 6.885 0 002.228-.847 3.504 3.504 0 01-1.543 1.934 6.99 6.99 0 002.025-.546 7.396 7.396 0 01-1.762 1.821z"/></svg></svg>