<svg width="24" height="24" viewBox="0 0 24 24" fill="none" xmlns="http://www.w3.org/2000/svg">
<path d="M19.6177 23.9875H16.2245V14.63H19.7183H19.7302L19.7307 14.6181L19.8905 11.2401L19.8911 11.227H19.878H16.2245V8.77279C16.2245 8.30711 16.2735 7.93798 16.4717 7.68495C16.6692 7.43273 17.0176 7.29278 17.625 7.29278C18.1875 7.29278 18.7266 7.29522 19.125 7.29765C19.3242 7.29887 19.4882 7.30009 19.6025 7.301L19.7346 7.30211L19.7693 7.30241L19.7781 7.3025L19.7804 7.30252L19.781 7.30252L19.7811 7.30252L19.7811 7.30252L19.7934 7.30264L19.7938 7.29034L19.8733 4.13583L19.8735 4.12457L19.8624 4.12312L19.8608 4.13551L19.8624 4.12311L19.8623 4.12311L19.8622 4.12309L19.8616 4.12302L19.8594 4.12274L19.8506 4.12163L19.8161 4.11746C19.7858 4.11386 19.7409 4.10873 19.6827 4.10257C19.5665 4.09026 19.3973 4.07384 19.1853 4.05742C18.7614 4.02459 18.1665 3.99176 17.4825 3.99176C15.7914 3.99176 14.5773 4.51311 13.7859 5.31986C12.9946 6.12649 12.6273 7.21717 12.6273 8.35351V11.227H10.1588H10.1463V11.2395V14.6175V14.63H10.1588H12.6273V23.9875H4.38226C1.96158 23.9875 0.0125 22.0384 0.0125 19.6178V4.38226C0.0125 1.96649 1.95369 0.0204015 4.36755 0.012524H4.38223H19.6177C22.0384 0.012524 23.9875 1.96161 23.9875 4.38228V19.6178C23.9875 22.0385 22.0384 23.9875 19.6177 23.9875Z" fill="#FDF1FF" stroke="#FDF1FF" stroke-width="0.025"/>
</svg>
