<svg width="24" height="24" viewBox="0 0 24 24" fill="none" xmlns="http://www.w3.org/2000/svg">
<path d="M23.905 7.04741L23.905 7.04753C23.9867 8.49926 23.9851 9.94173 23.9835 11.3938C23.9833 11.5956 23.983 11.7977 23.983 12C23.983 12.2262 23.9834 12.4522 23.9837 12.6779C23.9858 14.1057 23.9879 15.5246 23.905 16.9524L23.905 16.9526C23.812 18.8719 23.3774 20.5696 21.9733 21.9737C20.5722 23.3748 18.8716 23.8125 16.9523 23.9054L16.9522 23.9055C15.5004 23.9871 14.058 23.9855 12.6059 23.9839C12.4041 23.9837 12.2021 23.9835 11.9998 23.9835C11.7979 23.9835 11.5962 23.9837 11.3947 23.9839C9.94464 23.9855 8.5018 23.9871 7.0474 23.9055L7.04728 23.9054C5.12797 23.8125 3.43034 23.3778 2.02627 21.9737C0.625194 20.5726 0.187517 18.8719 0.0945513 16.9526L0.0945445 16.9525C0.012865 15.5007 0.014465 14.0558 0.0160713 12.6051C0.0162946 12.4035 0.0165179 12.2018 0.0165179 12C0.0165179 11.7981 0.0162945 11.5964 0.0160712 11.3949C0.0144649 9.94481 0.0128666 8.50195 0.094545 7.04753L0.0945509 7.04741C0.187517 5.12807 0.622195 3.4304 2.02627 2.0263C3.42734 0.625205 5.12798 0.18752 7.04728 0.0945528L7.0474 0.094546C8.49911 0.0128691 9.94157 0.0144648 11.3936 0.0160711C11.5954 0.0162944 11.7975 0.0165179 11.9998 0.0165179C12.2016 0.0165179 12.4033 0.0162945 12.6049 0.0160712C14.0549 0.0144649 15.4978 0.0128665 16.9522 0.0945465L16.9523 0.0945523C18.8716 0.18752 20.5692 0.622206 21.9733 2.0263C23.3744 3.4274 23.812 5.12808 23.905 7.04741ZM8.01077 12C8.01077 9.80514 9.80196 8.01392 11.9968 8.01392C14.1916 8.01392 15.9828 9.80514 15.9828 12C15.9828 14.1949 14.1916 15.9861 11.9968 15.9861C9.80196 15.9861 8.01077 14.1949 8.01077 12ZM5.8241 12C5.8241 15.4159 8.58091 18.1728 11.9968 18.1728C15.4126 18.1728 18.1694 15.4159 18.1694 12C18.1694 8.58407 15.4126 5.82721 11.9968 5.82721C8.58091 5.82721 5.8241 8.58407 5.8241 12ZM16.9524 5.59067C16.9524 6.39484 17.6018 7.04427 18.406 7.04427C18.5969 7.04451 18.786 7.00707 18.9625 6.9341C19.139 6.86114 19.2993 6.75407 19.4343 6.61905C19.5694 6.48402 19.6764 6.32368 19.7494 6.14721C19.8224 5.97074 19.8598 5.78161 19.8596 5.59067C19.8596 4.7865 19.2101 4.13707 18.406 4.13707C17.6018 4.13707 16.9524 4.7865 16.9524 5.59067Z" fill="#FDF1FF" stroke="#FDF1FF" stroke-width="0.03125"/>
</svg>
